<svg xmlns="http://www.w3.org/2000/svg" viewBox="0 0 38.36 118.7"><defs><style>.cls-1{fill:#fff;}</style></defs><g id="Layer_2" data-name="Layer 2"><g id="Elements"><path class="cls-1" d="M12.48,111.82l12-2.68a5.28,5.28,0,0,1-3.69,4.72A155,155,0,0,1,4.2,118.58C1,119.26-.7,117,.27,113.9c1.62-5.19,3.5-10.31,5.28-15.46.1-.3.19-.7.41-.85.73-.45,1.52-.81,2.29-1.2.32.66,1,1.36.91,2-.27,2.06-.8,4.08-1.23,6.11a7,7,0,0,0,0,3.7c1.23-1.11,2.51-2.17,3.68-3.34A74.51,74.51,0,0,0,24.21,15.69c-2.07-3.79-4.61-7.32-6.91-11C16.5,3.43,15.77,2.11,15,.81L15.71,0c.91.34,2.08.42,2.69,1.05a65.06,65.06,0,0,1,6,6.87c18,24.84,18.7,59.34,1.54,86-3.27,5.09-7.48,9.58-11.29,14.32-.78,1-1.71,1.84-2.57,2.75Z"/></g></g></svg>